<svg width="24" height="20" viewBox="0 0 24 20" fill="none" xmlns="http://www.w3.org/2000/svg">
<path fill-rule="evenodd" clip-rule="evenodd" d="M15.0108 0.966334C15.1728 1.02025 15.3227 1.10556 15.4517 1.21739C15.5808 1.32922 15.6865 1.46539 15.7629 1.6181C15.8394 1.77082 15.8849 1.93709 15.8971 2.10743C15.9092 2.27776 15.8877 2.44882 15.8337 2.61083L10.6337 18.2108C10.5247 18.538 10.2903 18.8085 9.98188 18.9629C9.67347 19.1172 9.3164 19.1427 8.9892 19.0337C8.662 18.9248 8.39149 18.6903 8.23716 18.3819C8.08284 18.0735 8.05735 17.7164 8.1663 17.3892L13.3663 1.78923C13.4202 1.6272 13.5055 1.47737 13.6174 1.34832C13.7292 1.21926 13.8653 1.11351 14.0181 1.03709C14.1708 0.960669 14.3371 0.915087 14.5074 0.902947C14.6777 0.890807 14.8488 0.912347 15.0108 0.966334ZM6.4191 5.18093C6.66281 5.42472 6.79972 5.75532 6.79972 6.10003C6.79972 6.44475 6.66281 6.77535 6.4191 7.01913L3.4382 10L6.4191 12.9809C6.54326 13.1009 6.6423 13.2443 6.71043 13.4029C6.77856 13.5615 6.81443 13.7321 6.81593 13.9047C6.81743 14.0773 6.78453 14.2485 6.71917 14.4083C6.6538 14.568 6.55727 14.7132 6.43521 14.8352C6.31315 14.9573 6.16801 15.0538 6.00824 15.1192C5.84847 15.1846 5.67729 15.2175 5.50468 15.216C5.33207 15.2145 5.16148 15.1786 5.00287 15.1105C4.84427 15.0423 4.70082 14.9433 4.5809 14.8191L0.6809 10.9191C0.437188 10.6753 0.300278 10.3447 0.300278 10C0.300278 9.65532 0.437188 9.32472 0.6809 9.08093L4.5809 5.18093C4.82469 4.93722 5.15529 4.80031 5.5 4.80031C5.84471 4.80031 6.17531 4.93722 6.4191 5.18093ZM17.5809 5.18093C17.8247 4.93722 18.1553 4.80031 18.5 4.80031C18.8447 4.80031 19.1753 4.93722 19.4191 5.18093L23.3191 9.08093C23.5628 9.32472 23.6997 9.65532 23.6997 10C23.6997 10.3447 23.5628 10.6753 23.3191 10.9191L19.4191 14.8191C19.2992 14.9433 19.1557 15.0423 18.9971 15.1105C18.8385 15.1786 18.6679 15.2145 18.4953 15.216C18.3227 15.2175 18.1515 15.1846 17.9918 15.1192C17.832 15.0538 17.6868 14.9573 17.5648 14.8352C17.4427 14.7132 17.3462 14.568 17.2808 14.4083C17.2155 14.2485 17.1826 14.0773 17.1841 13.9047C17.1856 13.7321 17.2214 13.5615 17.2896 13.4029C17.3577 13.2443 17.4567 13.1009 17.5809 12.9809L20.5618 10L17.5809 7.01913C17.3372 6.77535 17.2003 6.44475 17.2003 6.10003C17.2003 5.75532 17.3372 5.42472 17.5809 5.18093Z" fill="white"/>
</svg>
