<svg width="16" height="19" viewBox="0 0 16 19" fill="none" xmlns="http://www.w3.org/2000/svg">
<path fill-rule="evenodd" clip-rule="evenodd" d="M0.799988 2.99998C0.799988 2.36346 1.05284 1.75301 1.50293 1.30292C1.95302 0.852832 2.56347 0.599976 3.19999 0.599976C3.19999 1.55475 3.57927 2.47043 4.2544 3.14556C4.92953 3.82069 5.84521 4.19998 6.79999 4.19998H9.19999C10.1548 4.19998 11.0704 3.82069 11.7456 3.14556C12.4207 2.47043 12.8 1.55475 12.8 0.599976C13.4365 0.599976 14.047 0.852832 14.497 1.30292C14.9471 1.75301 15.2 2.36346 15.2 2.99998V16.2C15.2 16.8365 14.9471 17.4469 14.497 17.897C14.047 18.3471 13.4365 18.6 12.8 18.6H3.19999C2.56347 18.6 1.95302 18.3471 1.50293 17.897C1.05284 17.4469 0.799988 16.8365 0.799988 16.2V2.99998ZM12.4484 9.84837C12.667 9.62205 12.7879 9.31893 12.7852 9.00429C12.7825 8.68966 12.6563 8.38868 12.4338 8.16619C12.2113 7.9437 11.9103 7.8175 11.5957 7.81477C11.281 7.81203 10.9779 7.93299 10.7516 8.15158L6.79999 12.1032L5.24839 10.5516C5.02207 10.333 4.71894 10.212 4.40431 10.2148C4.08967 10.2175 3.7887 10.3437 3.56621 10.5662C3.34372 10.7887 3.21751 11.0897 3.21478 11.4043C3.21204 11.7189 3.333 12.0221 3.55159 12.2484L5.95159 14.6484C6.17662 14.8733 6.48179 14.9997 6.79999 14.9997C7.11819 14.9997 7.42335 14.8733 7.64839 14.6484L12.4484 9.84837Z" fill="white"/>
</svg>
