<svg width="18" height="20" viewBox="0 0 18 20" fill="none" xmlns="http://www.w3.org/2000/svg">
<path fill-rule="evenodd" clip-rule="evenodd" d="M1.79998 0.400024C2.11824 0.400024 2.42346 0.526453 2.6485 0.751496C2.87355 0.97654 2.99998 1.28176 2.99998 1.60002V4.12122C3.99842 3.10275 5.23969 2.35519 6.60687 1.94896C7.97404 1.54274 9.42212 1.49121 10.8147 1.79923C12.2073 2.10725 13.4986 2.76469 14.5669 3.70962C15.6352 4.65455 16.4454 5.85587 16.9212 7.20042C16.9789 7.35013 17.006 7.5099 17.0009 7.67027C16.9958 7.83064 16.9586 7.98836 16.8915 8.1341C16.8244 8.27984 16.7287 8.41063 16.6101 8.51875C16.4916 8.62688 16.3526 8.71013 16.2013 8.76358C16.05 8.81703 15.8895 8.8396 15.7294 8.82995C15.5692 8.8203 15.4126 8.77863 15.2688 8.70741C15.125 8.63618 14.997 8.53684 14.8923 8.41527C14.7876 8.2937 14.7083 8.15237 14.6592 7.99962C14.2969 6.9758 13.6637 6.06944 12.827 5.37712C11.9903 4.68479 10.9814 4.23245 9.90785 4.06828C8.83432 3.90412 7.73636 4.03429 6.73097 4.44491C5.72558 4.85554 4.85043 5.53125 4.19878 6.40002H7.79998C8.11824 6.40002 8.42346 6.52645 8.6485 6.7515C8.87355 6.97654 8.99998 7.28176 8.99998 7.60002C8.99998 7.91828 8.87355 8.22351 8.6485 8.44855C8.42346 8.6736 8.11824 8.80002 7.79998 8.80002H1.79998C1.48172 8.80002 1.17649 8.6736 0.951447 8.44855C0.726404 8.22351 0.599976 7.91828 0.599976 7.60002V1.60002C0.599976 1.28176 0.726404 0.97654 0.951447 0.751496C1.17649 0.526453 1.48172 0.400024 1.79998 0.400024ZM1.80958 11.2684C1.95818 11.2159 2.11567 11.1932 2.27304 11.2016C2.43042 11.21 2.5846 11.2493 2.72679 11.3173C2.86898 11.3852 2.99639 11.4806 3.10173 11.5978C3.20708 11.715 3.28831 11.8518 3.34078 12.0004C3.70301 13.0242 4.33623 13.9306 5.17296 14.6229C6.00968 15.3153 7.01857 15.7676 8.0921 15.9318C9.16563 16.0959 10.2636 15.9658 11.269 15.5551C12.2744 15.1445 13.1495 14.4688 13.8012 13.6H10.2C9.88171 13.6 9.57649 13.4736 9.35145 13.2486C9.1264 13.0235 8.99998 12.7183 8.99998 12.4C8.99998 12.0818 9.1264 11.7765 9.35145 11.5515C9.57649 11.3265 9.88171 11.2 10.2 11.2H16.2C16.5182 11.2 16.8235 11.3265 17.0485 11.5515C17.2735 11.7765 17.4 12.0818 17.4 12.4V18.4C17.4 18.7183 17.2735 19.0235 17.0485 19.2486C16.8235 19.4736 16.5182 19.6 16.2 19.6C15.8817 19.6 15.5765 19.4736 15.3514 19.2486C15.1264 19.0235 15 18.7183 15 18.4V15.8788C14.0015 16.8973 12.7603 17.6449 11.3931 18.0511C10.0259 18.4573 8.57783 18.5088 7.18524 18.2008C5.79265 17.8928 4.50138 17.2354 3.43307 16.2904C2.36475 15.3455 1.55455 14.1442 1.07878 12.7996C1.02629 12.651 1.00359 12.4935 1.01197 12.3362C1.02035 12.1788 1.05965 12.0246 1.12762 11.8824C1.1956 11.7402 1.29091 11.6128 1.40813 11.5075C1.52535 11.4021 1.66216 11.3209 1.81078 11.2684H1.80958Z" fill="white"/>
</svg>
