<svg width="14" height="16" viewBox="0 0 14 16" fill="none" xmlns="http://www.w3.org/2000/svg">
<path d="M6.99997 0C5.40867 0 3.88255 0.632141 2.75733 1.75736C1.63211 2.88258 0.99997 4.4087 0.99997 6V9.586L0.29297 10.293C0.153161 10.4329 0.0579541 10.611 0.0193866 10.805C-0.019181 10.9989 0.000622056 11.2 0.0762921 11.3827C0.151962 11.5654 0.280102 11.7215 0.444511 11.8314C0.608921 11.9413 0.80222 12 0.99997 12H13C13.1977 12 13.391 11.9413 13.5554 11.8314C13.7198 11.7215 13.848 11.5654 13.9236 11.3827C13.9993 11.2 14.0191 10.9989 13.9806 10.805C13.942 10.611 13.8468 10.4329 13.707 10.293L13 9.586V6C13 4.4087 12.3678 2.88258 11.2426 1.75736C10.1174 0.632141 8.59127 0 6.99997 0ZM6.99997 16C6.20432 16 5.44126 15.6839 4.87865 15.1213C4.31604 14.5587 3.99997 13.7956 3.99997 13H9.99997C9.99997 13.7956 9.6839 14.5587 9.12129 15.1213C8.55868 15.6839 7.79562 16 6.99997 16Z" fill="white"/>
</svg>
